<?xml version="1.0" encoding="UTF-8"?>
<svg id="Layer_1" data-name="Layer 1" xmlns="http://www.w3.org/2000/svg" viewBox="0 0 240.61 149.12">
  <defs>
    <style>
      .cls-1 {
        fill: #527687;
      }

      .cls-1, .cls-2 {
        stroke-width: 0px;
      }

      .cls-2 {
        fill: #aedef3;
      }
    </style>
  </defs>
  <path class="cls-2" d="M226.81,141.35c-5.58,0-10.93-2.65-14.31-7.07l-36.02-47.1-36.02,47.1c-3.39,4.43-8.74,7.07-14.31,7.07h-10.65l51.21-66.97L115.75,7.77h10.65c5.58,0,10.93,2.64,14.31,7.07l35.76,46.76,35.76-46.76c3.39-4.43,8.74-7.07,14.31-7.07h10.65l-50.94,66.62,51.21,66.97h-10.65Z"/>
  <path class="cls-1" d="M234.05,9.32l-49.76,65.06,50.02,65.41h-7.51c-5.13,0-9.96-2.39-13.08-6.46l-37.26-48.72-37.26,48.72c-3.12,4.07-7.95,6.46-13.08,6.46h-7.51l50.02-65.41L118.9,9.32h7.51c5.13,0,9.96,2.39,13.08,6.46l36.99,48.37,36.99-48.37c3.12-4.08,7.95-6.46,13.08-6.46h7.51ZM240.34,6.21h-13.8c-6.06,0-11.87,2.87-15.55,7.68l-34.52,45.15-34.52-45.15c-3.68-4.81-9.49-7.68-15.55-7.68h-13.8l3.82,4.99,48.32,63.18-48.58,63.53-3.82,4.99h13.8c6.06,0,11.87-2.87,15.55-7.68l34.79-45.49,34.79,45.49c3.68,4.81,9.49,7.68,15.55,7.68h13.8l-3.82-4.99-48.58-63.53,48.31-63.18,3.82-4.99Z"/>
  <path class="cls-2" d="M59.03,147.56c-31.69,0-57.47-26.7-57.47-59.51v-26.99C1.55,28.25,27.34,1.55,59.03,1.55s57.47,26.69,57.47,59.5v24.37H17.09v2.63c0,24.25,18.81,43.98,41.94,43.98,12.77,0,25.14-6.42,33.09-17.18,3.61-4.88,8.88-7.68,14.48-7.68h5.32l.63.63.42.83-.23.63c-8.44,22.9-30.02,38.29-53.71,38.29ZM100.97,69.9v-8.84c0-24.24-18.81-43.97-41.94-43.97S17.09,36.81,17.09,61.06v8.84h83.88Z"/>
  <path class="cls-1" d="M59.03,3.11c30.83,0,55.92,26,55.92,57.95v22.82H15.53v4.18c0,25.11,19.51,45.53,43.49,45.53,13.59,0,26.24-6.84,34.34-17.81,3.16-4.27,7.92-7.05,13.23-7.05h4.68c-8.21,22.3-29.23,37.28-52.25,37.28-30.83,0-55.92-26-55.92-57.96v-26.99C3.11,29.11,28.19,3.11,59.03,3.11ZM15.53,71.45h86.98v-10.39c0-25.1-19.51-45.52-43.49-45.52S15.53,35.96,15.53,61.06v10.39ZM59.03,0C26.48,0,0,27.39,0,61.06v26.99c0,33.67,26.48,61.07,59.03,61.07,24.33,0,46.5-15.8,55.17-39.31l1.54-4.18h-4.46s-4.68,0-4.68,0c-6.09,0-11.82,3.03-15.73,8.31-7.66,10.36-19.57,16.55-31.85,16.55-22.27,0-40.39-19.03-40.39-42.42v-1.07h96.3s3.11,0,3.11,0v-25.92C118.05,27.39,91.57,0,59.03,0ZM18.64,68.35v-7.29c0-23.39,18.12-42.42,40.39-42.42s40.39,19.03,40.39,42.42v7.29H18.64Z"/>
</svg>