<?xml version="1.0" encoding="UTF-8"?>
<svg id="Layer_1" data-name="Layer 1" xmlns="http://www.w3.org/2000/svg" viewBox="0 0 455.94 139.31">
  <defs>
    <style>
      .cls-1 {
        fill: #aedef3;
      }

      .cls-1, .cls-2 {
        stroke-width: 0px;
      }

      .cls-2 {
        fill: #fff;
      }
    </style>
  </defs>
  <path class="cls-1" d="M0,83.42l9.6-3.6L42.6,0h3.58l34.21,81.6,6,1.81v1.79h-14.4c-4.17,0-7.57-.94-10.21-2.81-2.64-1.89-4.6-4.35-5.88-7.4l-6.13-14.4h-28.67l-7.94,19.21,9,3.6v1.79H0v-1.79ZM22.31,57.6h26.29l-13.21-31.56-13.08,31.56Z"/>
  <path class="cls-1" d="M88.78,83.42l7.21-1.81V4.81l-7.21-1.81v-1.79h15.6c7.21,0,10.81,3.6,10.81,10.79v69.6l7.19,1.81v1.79h-33.6v-1.79Z"/>
  <path class="cls-1" d="M129.57,83.42l7.21-1.81V4.81l-7.21-1.81v-1.79h15.6c7.21,0,10.81,3.6,10.81,10.79v69.6l7.19,1.81v1.79h-33.6v-1.79Z"/>
  <path class="cls-1" d="M198.57,111c-7.13,0-12.93-.64-17.42-1.92-4.47-1.28-7.69-2.92-9.65-4.92s-2.94-4.12-2.94-6.35c0-2.72.82-4.91,2.46-6.54,1.64-1.64,3.82-2.46,6.54-2.46.64,0,1.8.11,3.48.35l1.31.25v16.79c.97.32,2.49.72,4.56,1.21,3.68.79,7.16,1.19,10.44,1.19,9.76,0,16.9-1.39,21.42-4.15,4.53-2.75,6.79-6.17,6.79-10.25,0-5.2-4.8-7.79-14.4-7.79h-22.81c-6,0-10.6-1.24-13.79-3.73-3.2-2.48-4.79-5.65-4.79-9.48s1.88-7.23,5.63-10.21c1.53-1.11,3.45-2.11,5.77-3-2.96-1.83-5.1-4.01-6.42-6.52-1.32-2.53-1.98-5.55-1.98-9.06,0-5.93,2.23-10.71,6.71-14.35,4.48-3.64,11.05-5.46,19.69-5.46,3.76,0,7.22.39,10.38,1.15,3.17.77,5.71,1.79,7.63,3.06.64-1.36,1.48-2.56,2.52-3.6,2.4-2.4,5.36-3.6,8.88-3.6,2.72,0,5,.95,6.83,2.83,1.84,1.88,2.77,4.33,2.77,7.38,0,2.32-.63,4.2-1.88,5.65-1.24,1.43-2.81,2.15-4.73,2.15-.88,0-1.88-.07-3-.23l-1.21-.38v-14.4c-2.07,0-4.03,1-5.88,3-.72.72-1.36,1.72-1.92,3,4,3.53,6,8.14,6,13.81s-2.24,10.7-6.73,14.33c-4.47,3.64-11.03,5.46-19.67,5.46-5.77,0-10.97-1-15.6-3l-2.4,1.21c-.81.47-1.41.93-1.81,1.38-.39.45-.58.99-.58,1.63,0,1.36.69,2.41,2.08,3.13,1.4.71,3.9,1.06,7.5,1.06h22.81c6,0,10.69,1.74,14.08,5.23,3.4,3.47,5.1,8.33,5.1,14.58s-2.66,11.58-7.98,15.58c-5.32,4-13.26,6-23.81,6ZM199.18,61.81c2.64,0,4.69-1.28,6.17-3.83,1.48-2.57,2.23-7.09,2.23-13.56s-.74-11.01-2.23-13.56c-1.47-2.57-3.53-3.85-6.17-3.85s-4.7,1.29-6.19,3.85c-1.47,2.56-2.21,7.08-2.21,13.56s.73,10.99,2.21,13.56c1.48,2.56,3.55,3.83,6.19,3.83Z"/>
  <path class="cls-1" d="M274.77,87c-9.92,0-17.7-2.82-23.35-8.46-5.64-5.64-8.46-13.42-8.46-23.33s2.82-17.69,8.46-23.33c5.65-5.64,13.44-8.46,23.35-8.46s17.69,2.82,23.33,8.46c5.64,5.64,8.46,13.42,8.46,23.33s-2.82,17.7-8.46,23.33c-5.64,5.64-13.42,8.46-23.33,8.46ZM274.77,84.6c3.19,0,5.89-2.23,8.08-6.71,2.21-4.48,3.31-12.05,3.31-22.69s-1.1-18.19-3.31-22.67c-2.2-4.48-4.89-6.73-8.08-6.73s-5.91,2.24-8.1,6.73c-2.2,4.47-3.29,12.03-3.29,22.67s1.09,18.2,3.29,22.69c2.19,4.47,4.9,6.71,8.1,6.71Z"/>
  <path class="cls-1" d="M347.96,87c-9.92,0-17.7-2.82-23.35-8.46-5.64-5.64-8.46-13.42-8.46-23.33s2.82-17.69,8.46-23.33c5.65-5.64,13.44-8.46,23.35-8.46s17.69,2.82,23.33,8.46c5.64,5.64,8.46,13.42,8.46,23.33s-2.82,17.7-8.46,23.33c-5.64,5.64-13.42,8.46-23.33,8.46ZM347.96,84.6c3.19,0,5.89-2.23,8.08-6.71,2.21-4.48,3.31-12.05,3.31-22.69s-1.1-18.19-3.31-22.67c-2.2-4.48-4.89-6.73-8.08-6.73s-5.91,2.24-8.1,6.73c-2.2,4.47-3.29,12.03-3.29,22.67s1.09,18.2,3.29,22.69c2.19,4.47,4.9,6.71,8.1,6.71Z"/>
  <path class="cls-1" d="M413.94,87c-4.72,0-8.93-1.22-12.6-3.65-3.68-2.44-6.6-6.04-8.77-10.79-2.16-4.76-3.23-10.55-3.23-17.35,0-10.23,2.38-18.09,7.15-23.56,4.76-5.48,11.19-8.23,19.27-8.23,3.83,0,7.19.8,10.06,2.4,1.21.56,2.45,1.35,3.73,2.4V4.81l-7.21-1.81v-1.79h15.6c7.21,0,10.81,3.6,10.81,10.79v69.6l7.19,1.81v1.79h-10.79c-4.81,0-8.53-1.48-11.17-4.44-1.13-1.21-2.01-2.73-2.65-4.56-1.03,2-2.35,3.8-3.96,5.4-3.6,3.6-8.08,5.4-13.44,5.4ZM418.75,82.81c2.96,0,5.64-1.6,8.04-4.81.88-1.19,1.79-2.79,2.75-4.79V31.81c-.88-.89-1.79-1.69-2.75-2.4-2.17-1.61-4.25-2.42-6.25-2.42-3.45,0-6.1,2-7.98,6s-2.81,11.41-2.81,22.21.85,17.5,2.56,21.54c1.72,4.04,3.86,6.06,6.44,6.06Z"/>
  <path class="cls-2" d="M241.68,106.18h14.27c3.48,0,6.58.68,9.29,2.04,2.71,1.35,4.8,3.26,6.29,5.73,1.5,2.47,2.25,5.33,2.25,8.56s-.75,6.09-2.25,8.56c-1.49,2.47-3.58,4.39-6.29,5.75-2.71,1.35-5.81,2.02-9.29,2.02h-14.27v-32.67ZM255.68,133.72c2.39,0,4.49-.46,6.31-1.38,1.82-.93,3.21-2.24,4.19-3.94.98-1.69,1.48-3.66,1.48-5.9s-.49-4.2-1.48-5.9c-.97-1.69-2.37-3-4.19-3.92-1.82-.93-3.93-1.4-6.31-1.4h-7.94v22.42h7.94Z"/>
  <path class="cls-2" d="M304.72,133.77v5.08h-24.5v-32.67h23.83v5.08h-17.77v8.5h15.77v5h-15.77v9h18.44Z"/>
  <path class="cls-2" d="M321.61,139.31c-2.53,0-4.97-.35-7.31-1.06-2.35-.72-4.21-1.67-5.58-2.85l2.1-4.71c1.34,1.06,2.99,1.92,4.94,2.58,1.94.67,3.9,1,5.85,1,2.42,0,4.22-.39,5.42-1.17,1.21-.78,1.81-1.8,1.81-3.06,0-.94-.33-1.71-1-2.31-.67-.61-1.52-1.08-2.54-1.42-1.03-.34-2.43-.74-4.21-1.19-2.49-.58-4.5-1.17-6.04-1.75-1.54-.59-2.87-1.53-3.98-2.79-1.1-1.26-1.65-2.96-1.65-5.1,0-1.8.48-3.44,1.46-4.92.98-1.48,2.46-2.66,4.44-3.52,1.98-.88,4.41-1.31,7.27-1.31,1.98,0,3.94.25,5.88.75,1.93.49,3.59,1.2,5,2.13l-1.92,4.73c-1.43-.84-2.93-1.48-4.48-1.92-1.56-.43-3.07-.65-4.54-.65-2.39,0-4.17.41-5.33,1.21-1.17.81-1.75,1.88-1.75,3.21,0,.95.33,1.72,1,2.31.67.58,1.51,1.05,2.54,1.4,1.03.33,2.43.72,4.21,1.15,2.43.57,4.42,1.16,5.98,1.77,1.55.6,2.88,1.52,3.98,2.77,1.11,1.24,1.67,2.91,1.67,5.02,0,1.81-.49,3.45-1.48,4.92-.99,1.46-2.47,2.63-4.46,3.5-1.99.86-4.41,1.29-7.27,1.29Z"/>
  <path class="cls-2" d="M340.83,106.18h6.06v32.67h-6.06v-32.67Z"/>
  <path class="cls-2" d="M378,122.14h5.75v13.02c-1.68,1.33-3.65,2.36-5.9,3.08-2.24.71-4.54,1.06-6.9,1.06-3.33,0-6.34-.72-9.02-2.17-2.67-1.44-4.77-3.44-6.29-5.98-1.52-2.55-2.27-5.44-2.27-8.65s.76-6.08,2.27-8.63c1.53-2.55,3.64-4.55,6.33-6,2.69-1.44,5.72-2.17,9.08-2.17,2.73,0,5.22.45,7.46,1.35,2.23.91,4.11,2.22,5.65,3.96l-3.83,3.73c-2.49-2.48-5.49-3.73-9-3.73-2.31,0-4.35.49-6.15,1.46-1.78.96-3.18,2.31-4.19,4.06-1.02,1.74-1.52,3.72-1.52,5.96s.51,4.15,1.52,5.9c1.01,1.74,2.41,3.1,4.19,4.1,1.79.99,3.82,1.48,6.1,1.48,2.54,0,4.78-.56,6.71-1.69v-10.17Z"/>
  <path class="cls-2" d="M420.75,106.18v32.67h-5l-18-22.13v22.13h-6.02v-32.67h4.98l18.02,22.13v-22.13h6.02Z"/>
  <path class="cls-2" d="M439.65,139.31c-2.53,0-4.97-.35-7.31-1.06-2.35-.72-4.21-1.67-5.58-2.85l2.1-4.71c1.34,1.06,2.99,1.92,4.94,2.58,1.94.67,3.9,1,5.85,1,2.42,0,4.22-.39,5.42-1.17,1.21-.78,1.81-1.8,1.81-3.06,0-.94-.33-1.71-1-2.31-.67-.61-1.52-1.08-2.54-1.42-1.03-.34-2.43-.74-4.21-1.19-2.49-.58-4.5-1.17-6.04-1.75-1.54-.59-2.87-1.53-3.98-2.79-1.1-1.26-1.65-2.96-1.65-5.1,0-1.8.48-3.44,1.46-4.92.98-1.48,2.46-2.66,4.44-3.52,1.98-.88,4.41-1.31,7.27-1.31,1.98,0,3.94.25,5.88.75,1.93.49,3.59,1.2,5,2.13l-1.92,4.73c-1.43-.84-2.93-1.48-4.48-1.92-1.56-.43-3.07-.65-4.54-.65-2.39,0-4.17.41-5.33,1.21-1.17.81-1.75,1.88-1.75,3.21,0,.95.33,1.72,1,2.31.67.58,1.51,1.05,2.54,1.4,1.03.33,2.43.72,4.21,1.15,2.43.57,4.42,1.16,5.98,1.77,1.55.6,2.88,1.52,3.98,2.77,1.11,1.24,1.67,2.91,1.67,5.02,0,1.81-.49,3.45-1.48,4.92-.99,1.46-2.47,2.63-4.46,3.5-1.99.86-4.41,1.29-7.27,1.29Z"/>
</svg>